<?xml version="1.0" standalone="no"?>
<!DOCTYPE svg PUBLIC "-//W3C//DTD SVG 20010904//EN"
 "http://www.w3.org/TR/2001/REC-SVG-20010904/DTD/svg10.dtd">
<svg version="1.0" xmlns="http://www.w3.org/2000/svg"
 width="314.000000pt" height="314.000000pt" viewBox="0 0 314.000000 314.000000"
 preserveAspectRatio="xMidYMid meet">
<metadata>
Created by potrace 1.11, written by Peter Selinger 2001-2013
</metadata>
<g transform="translate(0.000000,314.000000) scale(0.100000,-0.100000)"
fill="#000000" stroke="none">
<path d="M491 3130 c-4 -3 -7 -193 -6 -422 l0 -418 242 0 241 0 0 -720 0 -720
-41 -1 c-23 0 -132 -1 -242 -2 l-200 -2 0 -420 0 -420 1085 0 1085 0 1 410 c0
226 -2 415 -4 422 -3 9 -48 12 -165 12 -89 0 -196 0 -239 0 l-76 1 0 720 0
720 242 0 241 0 -1 413 c-1 226 -2 417 -3 422 -1 10 -2146 15 -2160 5z"/>
</g>
</svg>
